# xmcd
# Copyright (C) 1995-1998 Ti Kan
#
# Track frame offsets:
#       150
#       12867
#       26065
#       44932
#       63525
#       79292
#       91385
#       107952
#       134755
#       147257
#       162612
#       182032
#       193445
#       218655
#       247677
#       265195
#       288572
#       304687
#
# Disc length: 4419 seconds
#
# Revision: 0
# Processed by: cddbd v1.5.2PL0 Copyright (c) Steve Scherf et al.
# Submitted via: CD-Import v1.0
#
DISCID=1a114112
DTITLE=Silver Apples - Silver Apples
DYEAR=1997
DGENRE=
TTITLE0=Oscillations
TTITLE1=Seagreen Serenades
TTITLE2=Lovefingers
TTITLE3=Program
TTITLE4=Velvet Cave
TTITLE5=Whirly-Bird
TTITLE6=Dust
TTITLE7=Dancing Gods
TTITLE8=Misty Mountain
TTITLE9=You And I
TTITLE10=Water
TTITLE11=Ruby
TTITLE12=Gypsy Love
TTITLE13=You're Not Foolin' Me
TTITLE14=I Have Known Love
TTITLE15=A Pox On You
TTITLE16=Confusion
TTITLE17=Fantasies
EXTD=
EXTT0=
EXTT1=
EXTT2=
EXTT3=
EXTT4=
EXTT5=
EXTT6=
EXTT7=
EXTT8=
EXTT9=
EXTT10=
EXTT11=
EXTT12=
EXTT13=
EXTT14=
EXTT15=
EXTT16=
EXTT17=
PLAYORDER=
